<?xml version="1.0" standalone="no"?>
<!DOCTYPE svg PUBLIC "-//W3C//DTD SVG 20010904//EN"
 "http://www.w3.org/TR/2001/REC-SVG-20010904/DTD/svg10.dtd">
<svg version="1.0" xmlns="http://www.w3.org/2000/svg"
 width="500.000000pt" height="500.000000pt" viewBox="0 0 500.000000 500.000000"
 preserveAspectRatio="xMidYMid meet">
<metadata>
Created by potrace 1.11, written by Peter Selinger 2001-2013
</metadata>
<g transform="translate(0.000000,500.000000) scale(0.100000,-0.100000)"
fill="#000000" stroke="none">
<path d="M2425 4801 c-49 -13 -109 -47 -146 -84 -32 -32 -239 -375 -239 -396
0 -5 -3 -11 -8 -13 -4 -1 -32 -46 -61 -98 -30 -52 -76 -131 -101 -175 -47 -79
-409 -707 -448 -775 -11 -19 -43 -75 -72 -125 -87 -149 -231 -397 -258 -445
-14 -25 -72 -126 -130 -225 -57 -99 -115 -198 -127 -220 -12 -22 -31 -56 -43
-75 -12 -19 -25 -42 -29 -50 -3 -8 -16 -31 -28 -50 -12 -19 -33 -55 -47 -80
-14 -25 -49 -85 -78 -135 -29 -49 -60 -104 -70 -121 -16 -28 -301 -521 -340
-589 -10 -16 -43 -73 -73 -125 -112 -191 -122 -216 -121 -305 0 -105 35 -179
111 -241 99 -81 -111 -74 2402 -72 l2246 3 49 22 c60 28 132 102 158 162 25
56 31 157 14 214 -7 23 -40 89 -73 147 -33 58 -70 121 -81 140 -10 19 -43 76
-72 125 -29 50 -62 108 -75 130 -48 85 -104 182 -205 355 -40 68 -81 138 -90
155 -31 55 -427 739 -449 775 -11 19 -24 41 -28 49 -3 8 -66 116 -138 241 -72
125 -135 233 -138 241 -4 8 -15 28 -25 44 -19 31 -96 163 -279 479 -57 98
-103 182 -103 187 0 5 -4 9 -10 9 -5 0 -10 4 -10 10 0 5 -48 92 -106 192 -58
101 -124 215 -146 253 -23 39 -52 87 -65 107 -12 21 -23 40 -23 42 0 6 -87
152 -115 193 -30 45 -101 97 -155 115 -51 16 -130 20 -175 9z m402 -1331 c65
-39 63 -16 63 -692 0 -590 -1 -614 -20 -645 -37 -61 -48 -63 -370 -63 -322 0
-333 2 -370 63 -19 31 -20 55 -20 645 0 676 -2 653 63 692 30 19 52 20 327 20
275 0 297 -1 327 -20z m-18 -1776 l31 -26 0 -293 0 -294 -24 -28 -24 -28 -297
0 -297 0 -24 28 -24 28 0 287 c0 309 2 321 54 342 11 5 146 9 298 9 l276 1 31
-26z"/>
</g>
</svg>
